<?xml version="1.0" encoding="utf-8"?>
<!-- Generator: Adobe Illustrator 16.0.0, SVG Export Plug-In . SVG Version: 6.00 Build 0)  -->
<!DOCTYPE svg PUBLIC "-//W3C//DTD SVG 1.1//EN" "http://www.w3.org/Graphics/SVG/1.1/DTD/svg11.dtd">
<svg version="1.1" id="Layer_1" xmlns="http://www.w3.org/2000/svg" xmlns:xlink="http://www.w3.org/1999/xlink" x="0px" y="0px"
	 width="243.78px" height="243.779px" viewBox="0 0 243.78 243.779" enable-background="new 0 0 243.78 243.779"
	 xml:space="preserve">
<path d="M121.889,0C54.576,0,0,54.572,0,121.89c0,67.313,54.576,121.89,121.889,121.89c67.325,0,121.891-54.576,121.891-121.89
	C243.78,54.572,189.214,0,121.889,0z M52.188,119.573h37.134l-18.765,46.752L52.188,119.573z M109.621,184.979H77.966l-3.34-8.484
	L119.65,65.016h38.045L109.621,184.979z M187.413,111.744c-1.77,4.488-4.136,8.272-7.104,11.356
	c-2.968,3.122-6.396,5.489-10.277,7.123c-3.901,1.664-8.1,2.455-12.607,2.379c-4.453-0.02-8.994-0.944-13.619-2.77
	c-0.162-0.1-0.38-0.211-0.666-0.322c-0.278-0.107-0.539-0.23-0.763-0.363l-1.79-0.706l24.146-61.147l1.945,0.771
	c5.991,2.366,10.998,5.906,15.017,10.607c3.992,4.658,6.515,9.924,7.551,15.805C190.276,100.277,189.674,106.027,187.413,111.744z"
	/>
</svg>
